HIERARCHY
ROOT Hips
{
	OFFSET 0.000000 87.230942 0.000000
	CHANNELS 6 Xposition Yposition Zposition Xrotation Yrotation Zrotation
	JOINT Pelvis
	{
		OFFSET 0.000000 0.000000 0.000000
		CHANNELS 3 Xrotation Yrotation Zrotation
		JOINT LeftUpLeg
		{
			OFFSET 12.017000 -9.376404 -2.439400
			CHANNELS 3 Xrotation Yrotation Zrotation
			JOINT LeftLeg
			{
				OFFSET -0.007312 -32.846973 2.110600
				CHANNELS 3 Xrotation Yrotation Zrotation
				JOINT LeftFoot
				{
					OFFSET 0.007312 -32.065170 -0.570400
					CHANNELS 3 Xrotation Yrotation Zrotation
					JOINT LeftToeBase
					{
						OFFSET 0.728300 -11.045900 13.180700
						CHANNELS 3 Xrotation Yrotation Zrotation
						End Site
						{
							OFFSET 0.000000 17.212589 0.000000
						}
					}
				}
				JOINT LeftPantLeg
				{
					OFFSET 0.002788 -16.709013 -3.143600
					CHANNELS 3 Xrotation Yrotation Zrotation
					End Site
					{
						OFFSET -0.605125 24.528742 0.000000
					}
				}
			}
			JOINT Left_Butt
			{
				OFFSET -6.630234 1.326584 -3.183700
				CHANNELS 3 Xrotation Yrotation Zrotation
				End Site
				{
					OFFSET -0.498041 20.188049 0.000000
				}
			}
		}
		JOINT RightUpLeg
		{
			OFFSET -11.717000 -9.376404 -2.439400
			CHANNELS 3 Xrotation Yrotation Zrotation
			JOINT RightLeg
			{
				OFFSET -0.003241 -32.846912 2.110600
				CHANNELS 3 Xrotation Yrotation Zrotation
				JOINT RightFoot
				{
					OFFSET 0.003241 -32.065136 -0.570500
					CHANNELS 3 Xrotation Yrotation Zrotation
					JOINT RightToeBase
					{
						OFFSET -0.728300 -11.045901 13.180700
						CHANNELS 3 Xrotation Yrotation Zrotation
						End Site
						{
							OFFSET 0.000000 17.212593 0.000000
						}
					}
				}
				JOINT RightPantLeg
				{
					OFFSET 0.008142 -16.708982 -3.143700
					CHANNELS 3 Xrotation Yrotation Zrotation
					End Site
					{
						OFFSET 0.605088 24.528715 0.000000
					}
				}
			}
			JOINT Right_Butt
			{
				OFFSET 6.630732 1.326584 -3.183700
				CHANNELS 3 Xrotation Yrotation Zrotation
				End Site
				{
					OFFSET 0.498015 20.188240 0.000000
				}
			}
		}
	}
	JOINT Spine
	{
		OFFSET -0.062400 7.848404 3.918300
		CHANNELS 3 Xrotation Yrotation Zrotation
		JOINT Spine1
		{
			OFFSET -0.072800 11.422302 0.713400
			CHANNELS 3 Xrotation Yrotation Zrotation
			JOINT Spine2
			{
				OFFSET -0.083200 13.054001 -1.931600
				CHANNELS 3 Xrotation Yrotation Zrotation
				JOINT Neck
				{
					OFFSET -0.092200 14.121796 -5.138800
					CHANNELS 3 Xrotation Yrotation Zrotation
					JOINT Head
					{
						OFFSET 0.000200 10.447403 -0.842000
						CHANNELS 3 Xrotation Yrotation Zrotation
						JOINT Visor
						{
							OFFSET 0.457100 25.671204 16.550400
							CHANNELS 3 Xrotation Yrotation Zrotation
							End Site
							{
								OFFSET 0.000000 26.061493 0.000000
							}
						}
						JOINT HairMidA
						{
							OFFSET 0.459400 31.585403 8.437400
							CHANNELS 3 Xrotation Yrotation Zrotation
							End Site
							{
								OFFSET 0.000000 26.061493 0.000000
							}
						}
						JOINT HairMidB
						{
							OFFSET 0.464000 33.309204 -8.389700
							CHANNELS 3 Xrotation Yrotation Zrotation
							End Site
							{
								OFFSET 0.000000 26.061493 0.000000
							}
						}
						JOINT HairMidC
						{
							OFFSET 0.466600 27.991196 -17.375099
							CHANNELS 3 Xrotation Yrotation Zrotation
							End Site
							{
								OFFSET 0.000000 26.061493 0.000000
							}
						}
						JOINT HairMidD
						{
							OFFSET 0.467700 17.888092 -21.169500
							CHANNELS 3 Xrotation Yrotation Zrotation
							End Site
							{
								OFFSET 0.000000 26.061493 0.000000
							}
						}
						JOINT HairMidE
						{
							OFFSET 5.325700 3.514603 -14.369699
							CHANNELS 3 Xrotation Yrotation Zrotation
							End Site
							{
								OFFSET 0.000000 26.061493 0.000000
							}
						}
						JOINT HairMidF
						{
							OFFSET -4.394100 3.514603 -14.372400
							CHANNELS 3 Xrotation Yrotation Zrotation
							End Site
							{
								OFFSET 0.000000 26.061493 0.000000
							}
						}
						JOINT HairLeftA
						{
							OFFSET 15.319900 25.746506 2.623300
							CHANNELS 3 Xrotation Yrotation Zrotation
							End Site
							{
								OFFSET 0.000000 26.061493 0.000000
							}
						}
						JOINT HairLeftB
						{
							OFFSET 12.619500 29.289398 -8.731499
							CHANNELS 3 Xrotation Yrotation Zrotation
							End Site
							{
								OFFSET 0.000000 26.061493 0.000000
							}
						}
						JOINT HairLeftC
						{
							OFFSET 15.714800 15.959900 2.909800
							CHANNELS 3 Xrotation Yrotation Zrotation
							End Site
							{
								OFFSET 0.000000 26.061493 0.000000
							}
						}
						JOINT HairLeftD
						{
							OFFSET 16.101700 18.437408 -7.553200
							CHANNELS 3 Xrotation Yrotation Zrotation
							End Site
							{
								OFFSET 0.000000 26.061493 0.000000
							}
						}
						JOINT HairLeftE
						{
							OFFSET 9.731900 17.915009 -18.316799
							CHANNELS 3 Xrotation Yrotation Zrotation
							End Site
							{
								OFFSET 0.000000 26.061493 0.000000
							}
						}
						JOINT HairLeftF
						{
							OFFSET 11.204300 4.953598 -9.668100
							CHANNELS 3 Xrotation Yrotation Zrotation
							End Site
							{
								OFFSET 0.000000 26.061493 0.000000
							}
						}
						JOINT HairRightA
						{
							OFFSET -14.397900 25.746307 2.615100
							CHANNELS 3 Xrotation Yrotation Zrotation
							End Site
							{
								OFFSET 0.000000 26.061493 0.000000
							}
						}
						JOINT HairRightB
						{
							OFFSET -11.691200 29.289200 -8.738199
							CHANNELS 3 Xrotation Yrotation Zrotation
							End Site
							{
								OFFSET 0.000000 26.061493 0.000000
							}
						}
						JOINT HairRightC
						{
							OFFSET -14.792900 15.959702 2.901400
							CHANNELS 3 Xrotation Yrotation Zrotation
							End Site
							{
								OFFSET 0.000000 26.061493 0.000000
							}
						}
						JOINT HairRightD
						{
							OFFSET -15.174000 18.437195 -7.561900
							CHANNELS 3 Xrotation Yrotation Zrotation
							End Site
							{
								OFFSET 0.000000 26.061493 0.000000
							}
						}
						JOINT HairRightE
						{
							OFFSET -8.798200 17.914902 -18.322001
							CHANNELS 3 Xrotation Yrotation Zrotation
							End Site
							{
								OFFSET 0.000000 26.061493 0.000000
							}
						}
						JOINT HairRightF
						{
							OFFSET -10.275200 4.953506 -9.674099
							CHANNELS 3 Xrotation Yrotation Zrotation
							End Site
							{
								OFFSET 0.000000 26.061493 0.000000
							}
						}
					}
				}
				JOINT LeftShoulder
				{
					OFFSET 5.133500 7.341202 -1.867600
					CHANNELS 3 Xrotation Yrotation Zrotation
					JOINT LeftArm
					{
						OFFSET 8.072663 0.936867 -2.176600
						CHANNELS 3 Xrotation Yrotation Zrotation
						JOINT LeftForeArm
						{
							OFFSET 31.271999 0.000000 0.000000
							CHANNELS 3 Xrotation Yrotation Zrotation
							JOINT LeftHand
							{
								OFFSET 31.771030 0.000000 0.000000
								CHANNELS 3 Xrotation Yrotation Zrotation
								JOINT LeftHandThumb1
								{
									OFFSET 2.886520 -2.557846 4.416640
									CHANNELS 3 Xrotation Yrotation Zrotation
									JOINT LeftHandThumb2
									{
										OFFSET 2.371025 -1.368912 1.368911
										CHANNELS 3 Xrotation Yrotation Zrotation
										JOINT LeftHandThumb3
										{
											OFFSET 2.243378 -1.295212 1.295213
											CHANNELS 3 Xrotation Yrotation Zrotation
											End Site
											{
												OFFSET -0.332611 2.876945 0.020015
											}
										}
									}
								}
								JOINT LeftHandIndex1
								{
									OFFSET 8.568985 -0.641945 3.119977
									CHANNELS 3 Xrotation Yrotation Zrotation
									JOINT LeftHandIndex2
									{
										OFFSET 3.348503 0.000000 0.000000
										CHANNELS 3 Xrotation Yrotation Zrotation
										JOINT LeftHandIndex3
										{
											OFFSET 3.314552 0.000000 0.000000
											CHANNELS 3 Xrotation Yrotation Zrotation
											End Site
											{
												OFFSET -1.032898 3.075485 0.678796
											}
										}
									}
								}
								JOINT LeftHandMiddle1
								{
									OFFSET 8.124603 0.000000 0.000000
									CHANNELS 3 Xrotation Yrotation Zrotation
									JOINT LeftHandMiddle2
									{
										OFFSET 4.166275 0.000000 0.000000
										CHANNELS 3 Xrotation Yrotation Zrotation
										JOINT LeftHandMiddle3
										{
											OFFSET 3.018135 0.000000 0.000000
											CHANNELS 3 Xrotation Yrotation Zrotation
											End Site
											{
												OFFSET -1.032700 2.767982 0.617226
											}
										}
									}
								}
								JOINT LeftHandRing1
								{
									OFFSET 8.571686 -0.031357 -2.884048
									CHANNELS 3 Xrotation Yrotation Zrotation
									JOINT LeftHandRing2
									{
										OFFSET 3.671181 0.000000 0.000000
										CHANNELS 3 Xrotation Yrotation Zrotation
										JOINT LeftHandRing3
										{
											OFFSET 2.728851 0.000000 0.000000
											CHANNELS 3 Xrotation Yrotation Zrotation
											End Site
											{
												OFFSET -0.815796 2.539223 0.577389
											}
										}
									}
								}
								JOINT LeftHandPinky1
								{
									OFFSET 7.854515 -0.675232 -5.213020
									CHANNELS 3 Xrotation Yrotation Zrotation
									JOINT LeftHandPinky2
									{
										OFFSET 3.068596 0.000000 0.000000
										CHANNELS 3 Xrotation Yrotation Zrotation
										JOINT LeftHandPinky3
										{
											OFFSET 2.396042 0.000000 0.000000
											CHANNELS 3 Xrotation Yrotation Zrotation
											End Site
											{
												OFFSET -0.524597 2.267998 0.567429
											}
										}
									}
								}
							}
							JOINT LeftSleeve
							{
								OFFSET 19.684509 -0.200119 0.476146
								CHANNELS 3 Xrotation Yrotation Zrotation
								End Site
								{
									OFFSET -0.031017 25.731133 -0.002868
								}
							}
						}
					}
				}
				JOINT RightShoulder
				{
					OFFSET -4.395900 7.341202 -1.870200
					CHANNELS 3 Xrotation Yrotation Zrotation
					JOINT RightArm
					{
						OFFSET -8.071453 0.936867 -2.181100
						CHANNELS 3 Xrotation Yrotation Zrotation
						JOINT RightForeArm
						{
							OFFSET -31.272011 0.000000 0.000000
							CHANNELS 3 Xrotation Yrotation Zrotation
							JOINT RightHand
							{
								OFFSET -31.771019 0.000000 0.000000
								CHANNELS 3 Xrotation Yrotation Zrotation
								JOINT RightHandThumb1
								{
									OFFSET -2.886520 -2.557808 4.416626
									CHANNELS 3 Xrotation Yrotation Zrotation
									JOINT RightHandThumb2
									{
										OFFSET -2.371056 -1.368927 1.368928
										CHANNELS 3 Xrotation Yrotation Zrotation
										JOINT RightHandThumb3
										{
											OFFSET -2.243362 -1.295204 1.295206
											CHANNELS 3 Xrotation Yrotation Zrotation
											End Site
											{
												OFFSET 0.332642 2.876938 0.020047
											}
										}
									}
								}
								JOINT RightHandIndex1
								{
									OFFSET -8.568993 -0.641953 3.120017
									CHANNELS 3 Xrotation Yrotation Zrotation
									JOINT RightHandIndex2
									{
										OFFSET -3.348518 0.000000 0.000000
										CHANNELS 3 Xrotation Yrotation Zrotation
										JOINT RightHandIndex3
										{
											OFFSET -3.314552 0.000000 0.000000
											CHANNELS 3 Xrotation Yrotation Zrotation
											End Site
											{
												OFFSET 1.032898 3.075478 0.678804
											}
										}
									}
								}
								JOINT RightHandMiddle1
								{
									OFFSET -8.124588 0.000000 0.000000
									CHANNELS 3 Xrotation Yrotation Zrotation
									JOINT RightHandMiddle2
									{
										OFFSET -4.166275 0.000000 0.000000
										CHANNELS 3 Xrotation Yrotation Zrotation
										JOINT RightHandMiddle3
										{
											OFFSET -3.018097 0.000000 0.000000
											CHANNELS 3 Xrotation Yrotation Zrotation
											End Site
											{
												OFFSET 1.032700 2.767937 0.617197
											}
										}
									}
								}
								JOINT RightHandRing1
								{
									OFFSET -8.571747 -0.031349 -2.884061
									CHANNELS 3 Xrotation Yrotation Zrotation
									JOINT RightHandRing2
									{
										OFFSET -3.671204 0.000000 0.000000
										CHANNELS 3 Xrotation Yrotation Zrotation
										JOINT RightHandRing3
										{
											OFFSET -2.728874 0.000000 0.000000
											CHANNELS 3 Xrotation Yrotation Zrotation
											End Site
											{
												OFFSET 0.815804 2.539261 0.577413
											}
										}
									}
								}
								JOINT RightHandPinky1
								{
									OFFSET -7.854561 -0.675247 -5.212970
									CHANNELS 3 Xrotation Yrotation Zrotation
									JOINT RightHandPinky2
									{
										OFFSET -3.068550 0.000000 0.000000
										CHANNELS 3 Xrotation Yrotation Zrotation
										JOINT RightHandPinky3
										{
											OFFSET -2.395981 0.000000 0.000000
											CHANNELS 3 Xrotation Yrotation Zrotation
											End Site
											{
												OFFSET 0.524605 2.267952 0.567413
											}
										}
									}
								}
							}
							JOINT RightSleeve
							{
								OFFSET -19.684753 -0.200165 0.476065
								CHANNELS 3 Xrotation Yrotation Zrotation
								End Site
								{
									OFFSET 0.031342 25.731255 -0.002917
								}
							}
						}
					}
				}
				JOINT Hood
				{
					OFFSET 0.369700 14.447800 -5.317800
					CHANNELS 3 Xrotation Yrotation Zrotation
					JOINT Hood1
					{
						OFFSET 0.001700 -5.553802 -5.895100
						CHANNELS 3 Xrotation Yrotation Zrotation
						JOINT Hood2
						{
							OFFSET -0.000200 -8.380501 0.763600
							CHANNELS 3 Xrotation Yrotation Zrotation
							End Site
							{
								OFFSET 0.000000 8.415215 0.000000
							}
						}
					}
				}
				JOINT Left_Breast
				{
					OFFSET 5.682500 3.120102 3.188800
					CHANNELS 3 Xrotation Yrotation Zrotation
					End Site
					{
						OFFSET 0.000000 10.528564 0.000000
					}
				}
				JOINT Right_Breast
				{
					OFFSET -4.947600 3.120102 3.185900
					CHANNELS 3 Xrotation Yrotation Zrotation
					End Site
					{
						OFFSET 0.000000 10.528564 0.000000
					}
				}
				JOINT Whistle
				{
					OFFSET 0.368200 11.471298 0.095400
					CHANNELS 3 Xrotation Yrotation Zrotation
					JOINT Whistle1
					{
						OFFSET -0.002000 -6.349899 7.479800
						CHANNELS 3 Xrotation Yrotation Zrotation
						JOINT Whistle2
						{
							OFFSET -0.001300 -8.217598 4.717600
							CHANNELS 3 Xrotation Yrotation Zrotation
							End Site
							{
								OFFSET 0.000000 9.475479 0.000000
							}
						}
					}
				}
			}
		}
		JOINT Belly
		{
			OFFSET 0.212400 1.593002 3.163700
			CHANNELS 3 Xrotation Yrotation Zrotation
			End Site
			{
				OFFSET 0.000000 7.496635 0.000000
			}
		}
	}
	JOINT FitGrandmaFacialAnim_Joint
	{
		OFFSET 1.150000 -86.211197 -1.220100
		CHANNELS 3 Xrotation Yrotation Zrotation
		End Site
		{
			OFFSET 0.000000 31.666618 0.000000
		}
	}
}
MOTION
Frames: 4
Frame Time: 0.016667
-1.452425 73.986588 0.640959 -5.289963 -45.037024 0.028952 -0.000000 0.000001 0.000001 -29.901059 7.890994 18.569824 60.352357 -7.610514 4.290973 -27.983579 -7.405203 -15.180669 -0.000000 0.000000 0.000000 0.000001 -0.000003 0.000000 -0.000004 -0.000002 -0.000001 -20.174010 -12.692006 -28.864659 60.076541 -8.146303 -7.760721 -31.735511 -8.093367 23.747463 -0.000000 0.000001 -0.000000 -0.000001 -0.000001 0.000005 0.000005 -0.000000 0.000000 9.465711 7.114886 -1.724224 2.187714 0.989904 -0.915631 2.202830 0.982773 -0.894151 0.084652 13.220551 4.538679 8.920922 20.138142 -4.130235 0.000001 -0.000000 0.000000 0.000001 -0.000000 0.000000 0.000001 -0.000000 0.000000 0.000001 -0.000000 0.000000 0.000001 -0.000000 0.000000 0.000001 -0.000000 0.000000 0.000001 -0.000000 0.000000 0.000001 -0.000000 0.000000 0.000001 -0.000000 0.000000 0.000001 -0.000000 0.000000 0.000001 -0.000000 0.000000 0.000001 -0.000000 0.000000 0.000001 -0.000000 0.000000 0.000001 -0.000000 0.000000 0.000001 -0.000000 0.000000 0.000001 -0.000000 0.000000 0.000001 -0.000000 0.000000 0.000001 -0.000000 0.000000 0.000001 -0.000000 0.000000 1.117179 3.546354 -8.633311 -53.487020 4.935518 -51.503007 0.000137 -106.358067 0.000172 1.988608 -7.706150 -15.869263 -6.141227 -11.690799 -6.761677 9.914132 42.595512 3.409842 0.000002 -0.000001 -0.000002 0.255310 3.378203 -45.814341 5.654080 5.847728 -88.067469 0.000001 -0.000000 0.000004 -0.461475 3.841590 -39.722676 6.450732 5.820338 -95.892864 -0.000001 -0.000000 -0.000001 0.469726 4.966838 -39.799434 8.181072 5.368649 -113.502991 0.000002 -0.000001 -0.000000 -3.762433 9.063702 -45.253814 5.342505 5.828981 -85.005297 -0.000002 0.000000 -0.000001 0.000000 0.000001 -0.000002 3.036128 13.027191 -5.371408 -48.713725 27.172818 83.457098 -0.000041 105.988294 0.000038 -8.345371 17.548074 8.775682 -7.341092 13.749667 7.412335 9.855742 -44.489103 -3.903283 -0.000001 -0.000004 0.000004 -0.124372 -2.384768 45.108871 4.500606 -4.654563 88.071171 0.000000 0.000001 -0.000000 -0.761622 -2.932897 39.031068 5.133879 -4.632752 95.881642 0.000001 0.000000 -0.000000 0.154767 -4.068815 39.122661 6.509735 -4.273602 113.462877 -0.000000 -0.000003 0.000002 -4.198872 -8.025531 44.637772 4.252895 -4.639598 85.014818 -0.000003 0.000000 -0.000000 -0.000002 -0.000001 -0.000002 -0.000000 0.000000 -0.000000 -0.000000 0.000000 -0.000000 -0.000000 0.000000 -0.000000 -0.000000 0.000000 -0.000000 -0.000000 0.000000 -0.000000 -0.000000 0.000000 0.000000 -0.000000 0.000000 0.000000 -0.000000 0.000000 0.000000 -0.000000 -0.000001 -0.000000 -0.000000 0.000001 0.000001 
-1.482997 73.899979 0.412852 -5.394655 -45.302022 -0.035029 0.000000 -0.000003 -0.000000 -30.383403 7.614544 18.701348 61.043081 -7.499517 4.388908 -27.154711 -7.283197 -15.318023 -0.000000 -0.000001 0.000000 0.000002 -0.000004 0.000002 0.000000 -0.000000 -0.000000 -20.567496 -12.656026 -28.862672 60.508332 -7.758662 -7.889291 -31.956608 -8.103136 23.772002 0.000000 0.000001 -0.000001 -0.000002 -0.000002 -0.000000 0.000003 0.000000 0.000001 9.480514 7.204466 -1.590474 2.190248 1.012033 -0.889779 2.204671 1.005821 -0.868759 0.085770 13.245575 4.386412 8.800628 20.230044 -4.209237 0.000001 0.000000 0.000001 0.000001 0.000000 0.000001 0.000001 0.000000 0.000001 0.000001 0.000000 0.000001 0.000001 0.000000 0.000001 0.000001 0.000000 0.000001 0.000001 0.000000 0.000001 0.000001 0.000000 0.000001 0.000001 0.000000 0.000001 0.000001 0.000000 0.000001 0.000001 0.000000 0.000001 0.000001 0.000000 0.000001 0.000001 0.000000 0.000001 0.000001 0.000000 0.000001 0.000001 0.000000 0.000001 0.000001 0.000000 0.000001 0.000001 0.000000 0.000001 0.000001 0.000000 0.000001 0.000001 0.000000 0.000001 1.115727 3.626830 -8.693359 -53.153656 4.985200 -51.684332 -0.000014 -106.535242 0.000010 2.135041 -7.826411 -15.735528 -6.141224 -11.690797 -6.761677 9.914132 42.595508 3.409840 -0.000002 -0.000000 0.000002 0.255313 3.378201 -45.814337 5.654079 5.847728 -88.067462 0.000001 -0.000001 0.000000 -0.461473 3.841589 -39.722676 6.450731 5.820338 -95.892864 -0.000000 -0.000002 0.000000 0.469728 4.966838 -39.799434 8.181072 5.368652 -113.502991 -0.000000 0.000002 -0.000001 -3.762429 9.063697 -45.253818 5.342503 5.828985 -85.005304 -0.000003 -0.000002 0.000001 -0.000000 -0.000001 0.000001 3.033766 13.290775 -5.488888 -48.445582 26.967603 82.836480 0.000282 106.217269 -0.000286 -8.837566 17.355379 8.303448 -7.341096 13.749664 7.412333 9.855743 -44.489103 -3.903291 0.000001 0.000004 -0.000001 -0.124376 -2.384768 45.108871 4.500605 -4.654565 88.071171 0.000001 0.000001 -0.000000 -0.761625 -2.932897 39.031068 5.133875 -4.632750 95.881642 0.000002 -0.000001 0.000001 0.154763 -4.068815 39.122661 6.509737 -4.273600 113.462884 0.000000 -0.000003 0.000002 -4.198877 -8.025535 44.637772 4.252889 -4.639599 85.014811 -0.000003 0.000000 -0.000001 0.000002 0.000000 -0.000002 0.000000 0.000001 -0.000000 0.000000 0.000001 -0.000000 0.000000 0.000001 -0.000000 0.000000 0.000001 -0.000000 0.000000 0.000001 -0.000000 0.000000 0.000001 0.000000 0.000000 0.000001 -0.000000 0.000000 0.000001 -0.000000 -0.000000 -0.000002 -0.000000 0.000000 -0.000003 -0.000000 
-1.487473 73.808716 0.210856 -5.525981 -45.592247 -0.127798 0.000000 -0.000004 0.000000 -30.854898 7.316893 18.835570 61.811730 -7.327827 4.433051 -26.331032 -7.241560 -15.431127 0.000000 0.000001 0.000000 0.000003 -0.000002 0.000001 -0.000002 -0.000000 0.000000 -21.010382 -12.649360 -28.872927 60.976903 -7.348456 -8.066196 -32.181201 -8.089159 23.683027 0.000000 -0.000001 -0.000001 0.000001 -0.000001 0.000001 0.000002 0.000003 0.000001 9.515454 7.267279 -1.447738 2.197572 1.027118 -0.862105 2.211432 1.021837 -0.841507 0.080984 13.269761 4.242635 8.681402 20.313034 -4.292200 0.000001 0.000000 -0.000001 0.000001 0.000000 -0.000001 0.000001 0.000000 -0.000001 0.000001 0.000000 -0.000001 0.000001 0.000000 -0.000001 0.000001 0.000000 -0.000001 0.000001 0.000000 -0.000001 0.000001 0.000000 -0.000001 0.000001 0.000000 -0.000001 0.000001 0.000000 -0.000001 0.000001 0.000000 -0.000001 0.000001 0.000000 -0.000001 0.000001 0.000000 -0.000001 0.000001 0.000000 -0.000001 0.000001 0.000000 -0.000001 0.000001 0.000000 -0.000001 0.000001 0.000000 -0.000001 0.000001 0.000000 -0.000001 0.000001 0.000000 -0.000001 1.116597 3.696297 -8.750944 -52.843032 5.031847 -51.853451 0.000082 -106.672392 0.000104 2.300295 -7.951179 -15.637933 -6.141224 -11.690799 -6.761680 9.914134 42.595515 3.409836 0.000001 -0.000000 0.000001 0.255316 3.378201 -45.814344 5.654078 5.847728 -88.067462 0.000003 0.000001 -0.000001 -0.461470 3.841590 -39.722679 6.450729 5.820339 -95.892851 -0.000001 -0.000001 0.000000 0.469729 4.966834 -39.799437 8.181072 5.368652 -113.502991 0.000001 -0.000000 0.000000 -3.762431 9.063704 -45.253821 5.342504 5.828982 -85.005297 -0.000001 -0.000000 -0.000000 -0.000001 -0.000004 -0.000000 3.025577 13.532524 -5.623949 -48.207762 26.760159 82.253011 0.000127 106.474275 -0.000119 -9.184496 17.196924 7.719690 -7.341096 13.749666 7.412327 9.855738 -44.489103 -3.903279 0.000002 0.000001 -0.000001 -0.124377 -2.384770 45.108868 4.500605 -4.654563 88.071171 0.000000 0.000002 -0.000002 -0.761625 -2.932896 39.031061 5.133876 -4.632747 95.881629 -0.000004 -0.000001 -0.000000 0.154760 -4.068816 39.122658 6.509737 -4.273599 113.462884 -0.000001 -0.000001 0.000001 -4.198873 -8.025534 44.637772 4.252886 -4.639599 85.014818 0.000002 -0.000001 0.000003 0.000002 0.000002 -0.000002 -0.000000 0.000001 -0.000000 -0.000000 0.000001 -0.000000 -0.000000 0.000001 -0.000000 -0.000000 0.000001 -0.000000 -0.000000 0.000001 -0.000000 -0.000000 0.000001 -0.000000 -0.000000 -0.000000 0.000000 -0.000000 -0.000000 0.000000 -0.000000 -0.000000 -0.000000 0.000000 -0.000004 0.000000 
-1.468686 73.712471 0.041234 -5.685824 -45.899554 -0.246583 0.000000 0.000001 -0.000000 -31.333585 7.008103 18.948533 62.687046 -7.161577 4.462488 -25.479570 -7.210300 -15.492723 0.000000 -0.000003 0.000000 0.000001 -0.000000 0.000001 -0.000000 -0.000000 0.000001 -21.466590 -12.659814 -28.904715 61.450037 -6.906567 -8.280703 -32.397903 -8.062585 23.541982 0.000000 -0.000001 -0.000001 -0.000002 0.000001 0.000003 -0.000001 -0.000000 0.000000 9.566133 7.303079 -1.304454 2.208614 1.035266 -0.834416 2.222028 1.030860 -0.814186 0.077826 13.290473 4.114899 8.569949 20.386127 -4.382673 0.000000 -0.000000 0.000001 0.000000 -0.000000 0.000001 0.000000 -0.000000 0.000001 0.000000 -0.000000 0.000001 0.000000 -0.000000 0.000001 0.000000 -0.000000 0.000001 0.000000 -0.000000 0.000001 0.000000 -0.000000 0.000001 0.000000 -0.000000 0.000001 0.000000 -0.000000 0.000001 0.000000 -0.000000 0.000001 0.000000 -0.000000 0.000001 0.000000 -0.000000 0.000001 0.000000 -0.000000 0.000001 0.000000 -0.000000 0.000001 0.000000 -0.000000 0.000001 0.000000 -0.000000 0.000001 0.000000 -0.000000 0.000001 0.000000 -0.000000 0.000001 1.119847 3.753403 -8.805219 -52.554805 5.073448 -52.013117 0.000210 -106.767571 0.000228 2.477029 -8.092272 -15.589502 -6.141225 -11.690800 -6.761675 9.914139 42.595508 3.409841 0.000002 -0.000001 0.000002 0.255313 3.378201 -45.814337 5.654079 5.847730 -88.067462 -0.000000 -0.000001 0.000002 -0.461473 3.841589 -39.722676 6.450729 5.820337 -95.892857 0.000001 -0.000000 0.000001 0.469729 4.966837 -39.799437 8.181073 5.368651 -113.502991 0.000003 0.000001 0.000002 -3.762431 9.063700 -45.253818 5.342507 5.828983 -85.005297 0.000001 -0.000000 0.000000 -0.000001 -0.000000 -0.000001 3.012407 13.754816 -5.753861 -47.992341 26.566308 81.688885 0.000229 106.756260 -0.000227 -9.402028 17.062728 7.024385 -7.341095 13.749669 7.412330 9.855744 -44.489107 -3.903286 0.000002 -0.000003 0.000000 -0.124379 -2.384770 45.108868 4.500603 -4.654563 88.071171 -0.000000 -0.000000 0.000003 -0.761627 -2.932899 39.031061 5.133875 -4.632752 95.881642 0.000001 -0.000001 0.000004 0.154763 -4.068820 39.122658 6.509738 -4.273598 113.462877 0.000001 -0.000004 0.000000 -4.198875 -8.025532 44.637772 4.252889 -4.639600 85.014811 -0.000003 0.000002 -0.000001 -0.000001 -0.000001 -0.000002 -0.000000 0.000001 0.000000 -0.000000 0.000001 0.000000 -0.000000 0.000001 0.000000 -0.000000 0.000001 0.000000 -0.000000 0.000001 0.000000 -0.000001 0.000001 0.000000 -0.000001 0.000002 0.000000 -0.000001 0.000002 0.000000 0.000000 0.000001 -0.000000 0.000000 0.000001 -0.000000 
